<svg width="1948" height="1064" viewBox="0 0 1948 1064" fill="none" xmlns="http://www.w3.org/2000/svg">
<g filter="url(#filter0_n_185_1082)">
<path d="M898.062 0.0648693C942.531 -0.0232413 979.801 -0.0436469 986.423 0.145924C1003.56 0.636892 1012.24 10.1578 1029.4 29.1108C1041.68 42.6752 1050 52.4385 1057.56 59.31C1063.16 64.3972 1068.33 67.8774 1074.37 70.1157L1929 70.1166C1939.49 70.1166 1948 78.6232 1948 89.1166V1044.12C1948 1054.61 1939.49 1063.12 1929 1063.12L19 1063.12C8.50683 1063.12 4.58479e-05 1054.61 0 1044.12V70.1157H725.063C730.088 67.8523 734.6 64.6108 739.434 60.1498C746.984 53.181 755.282 43.2792 767.538 29.5229C784.662 10.3033 793.326 0.646014 810.432 0.147877C817.012 -0.0435848 853.927 -0.0225931 898.062 0.0658458V0.0648693Z" fill="#30A9D2"/>
</g>
<g filter="url(#filter1_i_185_1082)">
<path d="M57.7329 744.247C116.258 744.146 213.375 743.94 223.347 744.131C236.846 744.39 243.673 749.384 257.417 759.554C277.011 774.052 285.346 780.43 300.114 782.506H877V1006.72C877 1015.94 869.528 1023.41 860.311 1023.41H60.6899C51.4728 1023.41 44.0005 1015.94 44.0005 1006.72V758.035C44.0005 750.43 50.1272 744.26 57.7329 744.247Z" fill="#131313"/>
</g>
<g filter="url(#filter2_i_185_1082)">
<path d="M64.9751 110.322C165.373 110.188 338.009 109.896 355.485 110.159C378.779 110.509 390.558 117.263 414.276 131.019C446.303 149.594 460.897 158.75 484.006 162.052H877V681.052C877 693.755 866.703 704.052 854 704.052H69.0005C56.298 704.052 46.0006 693.755 46.0005 681.052V129.323C46.0006 118.839 54.4909 110.336 64.9751 110.322Z" fill="#131313"/>
</g>
<g filter="url(#filter3_i_185_1082)">
<path d="M937.975 110.322C1038.37 110.188 1211.01 109.896 1228.48 110.159C1251.78 110.509 1263.56 117.263 1287.28 131.019C1319.3 149.594 1333.9 158.75 1357.01 162.052H1887C1899.7 162.052 1910 172.35 1910 185.052V1000.05C1910 1012.75 1899.7 1023.05 1887 1023.05H942C929.298 1023.05 919 1012.75 919 1000.05V129.323C919.001 118.839 927.491 110.336 937.975 110.322Z" fill="#131313"/>
</g>
<defs>
<filter id="filter0_n_185_1082" x="0" y="0" width="1948" height="1063.12" filterUnits="userSpaceOnUse" color-interpolation-filters="sRGB">
<feFlood flood-opacity="0" result="BackgroundImageFix"/>
<feBlend mode="normal" in="SourceGraphic" in2="BackgroundImageFix" result="shape"/>
<feTurbulence type="fractalNoise" baseFrequency="25 25" stitchTiles="stitch" numOctaves="3" result="noise" seed="7530" />
<feColorMatrix in="noise" type="luminanceToAlpha" result="alphaNoise" />
<feComponentTransfer in="alphaNoise" result="coloredNoise1">
<feFuncA type="discrete" tableValues="1 1 1 1 1 1 1 1 1 1 1 1 1 1 1 1 1 1 1 1 1 1 1 1 1 1 1 1 1 1 1 1 1 1 1 1 1 1 1 1 1 1 1 1 1 1 1 1 1 1 1 0 0 0 0 0 0 0 0 0 0 0 0 0 0 0 0 0 0 0 0 0 0 0 0 0 0 0 0 0 0 0 0 0 0 0 0 0 0 0 0 0 0 0 0 0 0 0 0 0 "/>
</feComponentTransfer>
<feComposite operator="in" in2="shape" in="coloredNoise1" result="noise1Clipped" />
<feFlood flood-color="rgba(0, 0, 0, 0.2)" result="color1Flood" />
<feComposite operator="in" in2="noise1Clipped" in="color1Flood" result="color1" />
<feMerge result="effect1_noise_185_1082">
<feMergeNode in="shape" />
<feMergeNode in="color1" />
</feMerge>
</filter>
<filter id="filter1_i_185_1082" x="44.0005" y="744.053" width="833" height="282.26" filterUnits="userSpaceOnUse" color-interpolation-filters="sRGB">
<feFlood flood-opacity="0" result="BackgroundImageFix"/>
<feBlend mode="normal" in="SourceGraphic" in2="BackgroundImageFix" result="shape"/>
<feColorMatrix in="SourceAlpha" type="matrix" values="0 0 0 0 0 0 0 0 0 0 0 0 0 0 0 0 0 0 127 0" result="hardAlpha"/>
<feOffset dy="2.90244"/>
<feGaussianBlur stdDeviation="1.45122"/>
<feComposite in2="hardAlpha" operator="arithmetic" k2="-1" k3="1"/>
<feColorMatrix type="matrix" values="0 0 0 0 0 0 0 0 0 0 0 0 0 0 0 0 0 0 0.25 0"/>
<feBlend mode="normal" in2="shape" result="effect1_innerShadow_185_1082"/>
</filter>
<filter id="filter2_i_185_1082" x="46.0005" y="110.053" width="831" height="598" filterUnits="userSpaceOnUse" color-interpolation-filters="sRGB">
<feFlood flood-opacity="0" result="BackgroundImageFix"/>
<feBlend mode="normal" in="SourceGraphic" in2="BackgroundImageFix" result="shape"/>
<feColorMatrix in="SourceAlpha" type="matrix" values="0 0 0 0 0 0 0 0 0 0 0 0 0 0 0 0 0 0 127 0" result="hardAlpha"/>
<feOffset dy="4"/>
<feGaussianBlur stdDeviation="2"/>
<feComposite in2="hardAlpha" operator="arithmetic" k2="-1" k3="1"/>
<feColorMatrix type="matrix" values="0 0 0 0 0 0 0 0 0 0 0 0 0 0 0 0 0 0 0.25 0"/>
<feBlend mode="normal" in2="shape" result="effect1_innerShadow_185_1082"/>
</filter>
<filter id="filter3_i_185_1082" x="919" y="110.053" width="991" height="917" filterUnits="userSpaceOnUse" color-interpolation-filters="sRGB">
<feFlood flood-opacity="0" result="BackgroundImageFix"/>
<feBlend mode="normal" in="SourceGraphic" in2="BackgroundImageFix" result="shape"/>
<feColorMatrix in="SourceAlpha" type="matrix" values="0 0 0 0 0 0 0 0 0 0 0 0 0 0 0 0 0 0 127 0" result="hardAlpha"/>
<feOffset dy="4"/>
<feGaussianBlur stdDeviation="2"/>
<feComposite in2="hardAlpha" operator="arithmetic" k2="-1" k3="1"/>
<feColorMatrix type="matrix" values="0 0 0 0 0 0 0 0 0 0 0 0 0 0 0 0 0 0 0.25 0"/>
<feBlend mode="normal" in2="shape" result="effect1_innerShadow_185_1082"/>
</filter>
</defs>
</svg>
