<svg width="250" height="70" viewBox="0 0 250 70" fill="none" xmlns="http://www.w3.org/2000/svg">
<path d="M93.2985 43.6383L93.2985 25.8213L115.026 25.8213L115.026 31.4687L100.245 31.4687V33.6428L113.29 33.6428L113.29 38.8526L100.245 38.8526L100.245 43.6383L93.2985 43.6383ZM117.299 25.7948L124.246 25.7948L124.246 43.6117L117.299 43.6117L117.299 25.7948ZM128.203 25.7948L135.149 25.7948L135.149 37.9644L149.055 37.9644L149.055 43.6117L128.203 43.6117L128.203 25.7948ZM159.932 43.6383L152.986 43.6383L152.986 31.4687L144.727 31.4687V25.8213L168.191 25.8213L168.191 31.4687L159.932 31.4687L159.932 43.6383ZM170.796 43.6383L170.796 25.8213L191.648 25.8213L191.648 30.3816L177.742 30.3816L177.742 32.6618L191.648 32.6618V36.7846L177.742 36.7846V39.0647L191.648 39.0647L191.648 43.6383L170.796 43.6383ZM195.619 25.8081L212.786 25.8081C216.458 25.7683 219.573 28.8571 219.52 32.5425C219.52 33.8814 219.162 35.101 218.446 36.188C217.744 37.2618 216.803 38.0837 215.636 38.6272L219.52 43.625L212.123 43.625L208.769 39.2768L202.565 39.2768L202.565 43.625L195.619 43.625L195.619 25.8081ZM211.036 31.0179L202.565 31.0179V34.0537L211.036 34.0537C211.46 34.0537 211.818 33.9079 212.11 33.6162C212.415 33.3113 212.561 32.9534 212.561 32.5425C212.561 31.694 211.884 31.0179 211.036 31.0179Z" fill="white"/>
<g clip-path="url(#clip0_358_32)">
<path d="M34.3984 15.8652C34.3984 15.9945 34.4242 16.1238 34.4242 16.2531C40.2971 15.6972 45.8738 17.0675 51.4505 18.6188C52.6741 18.9549 54.0006 19.0195 55.2757 19.0195C62.5782 19.0583 69.8936 19.0324 77.1961 19.0324C77.6984 19.0324 78.2007 19.0324 78.7802 19.0324V15.8652H34.3984Z" fill="white"/>
<path d="M34.6816 12H78.793V15.2448C78.149 15.2448 77.5952 15.2448 77.0414 15.2448C69.0048 15.2448 60.9681 15.2706 52.9315 15.2189C51.3474 15.2189 49.7246 15.025 48.2048 14.6242C43.7873 13.4349 39.3826 12.1681 34.6816 12Z" fill="white"/>
<path d="M78.8073 19.7305V22.7813C78.2664 22.8201 77.7254 22.8847 77.1716 22.8847C70.7964 22.8847 64.4083 22.9364 58.0331 22.8589C56.3588 22.833 54.6072 22.6391 53.0102 22.1608C47.4721 20.4803 41.8439 19.8468 36.0869 20.0795C35.5717 20.1054 35.0566 20.0795 34.5414 20.0537C34.4641 20.0537 34.3869 19.9502 34.1035 19.7305H78.7944H78.8073Z" fill="white"/>
<path d="M34.3984 15.8652H78.7802V19.0324C78.2007 19.0324 77.6984 19.0324 77.1961 19.0324C69.8936 19.0324 62.5782 19.0583 55.2757 19.0195C54.0006 19.0195 52.6741 18.9549 51.4505 18.6188C45.8738 17.0545 40.2971 15.6972 34.4242 16.2531C34.4242 16.1238 34.3984 15.9945 34.3984 15.8652Z" fill="white"/>
<path d="M78.807 23.5183V26.6079C78.2661 26.6338 77.8282 26.6855 77.3774 26.6855C72.1227 26.6855 66.868 26.7631 61.6261 26.6597C59.4366 26.6079 57.1828 26.4011 55.0835 25.8194C49.7643 24.3715 44.3937 23.7639 38.8943 23.9578C37.323 24.0096 35.7517 23.9578 34.1934 23.8674C35.0434 23.2727 75.5614 23.04 78.8199 23.5183H78.807Z" fill="white"/>
<path d="M34.1281 27.3323C34.566 27.2806 34.991 27.203 35.4289 27.203C49.171 27.203 62.9261 27.1901 76.6682 27.203C79.1539 27.203 79.3471 27.5391 78.6645 30.4995C78.1493 30.4995 77.5955 30.4995 77.0417 30.4995C73.1264 30.4995 69.2111 30.4348 65.2958 30.5253C62.2306 30.59 59.2555 30.2021 56.2933 29.3877C52.5583 28.3535 48.7332 27.8494 44.8436 27.9269C41.7526 27.9916 38.6616 27.9399 35.5706 27.9269C35.0812 27.9269 34.6046 27.8623 34.1152 27.8364C34.1152 27.6684 34.1152 27.5133 34.1152 27.3452L34.1281 27.3323Z" fill="white"/>
<path d="M34.0523 39.044C34.9667 38.5398 75.3173 38.2812 78.7819 38.7854V41.9268C74.3256 41.8492 69.9081 42.3534 65.5549 41.2028C60.9441 39.9877 56.2432 39.5481 51.4779 39.5998C46.2232 39.6645 40.9685 39.6257 35.7137 39.5998C35.147 39.5998 34.5804 39.4835 34.0137 39.4318C34.0137 39.3025 34.0394 39.1603 34.0394 39.031L34.0523 39.044Z" fill="white"/>
<path d="M78.8072 34.8293V38.1387C77.5966 38.1387 76.4761 38.1128 75.3685 38.1387C69.9463 38.3196 64.6143 37.9448 59.3081 36.6003C56.6421 35.9281 53.8087 35.7988 51.0525 35.7213C45.9652 35.592 40.865 35.6825 35.7649 35.6825C35.224 35.6825 34.6701 35.6825 34.1292 35.6825C34.1035 35.5661 34.0648 35.4627 34.0391 35.3464C34.2194 35.1783 34.3739 34.9068 34.5929 34.8422C34.9277 34.7517 35.3012 34.7905 35.6618 34.7905C49.4555 34.7905 63.2491 34.7905 77.0428 34.7905C77.5966 34.7905 78.1504 34.7905 78.8201 34.7905L78.8072 34.8293Z" fill="white"/>
<path d="M78.8198 31.0421V34.1705C78.3819 34.2222 77.9827 34.2998 77.5963 34.2998C75.9477 34.3127 74.2992 34.2739 72.6507 34.3127C67.28 34.442 61.9995 34.1705 56.7448 32.7614C53.8985 31.9987 50.8461 31.9212 47.871 31.8048C43.8141 31.6497 39.7442 31.766 35.6744 31.7531C35.1592 31.7531 34.6441 31.6755 34.1289 31.6368C34.1289 31.4299 34.1547 31.236 34.1675 31.0292C49.0173 31.0163 63.867 31.0292 78.8327 31.0292L78.8198 31.0421Z" fill="white"/>
<path d="M78.8061 46.3483V49.5414C77.6341 49.5414 76.4621 49.6706 75.3287 49.5155C72.9847 49.2052 70.6665 48.6623 68.3224 48.3779C65.1155 47.9771 61.8828 47.5247 58.663 47.4601C50.987 47.3308 43.3239 47.4213 35.6479 47.3954C35.0941 47.3954 34.1668 47.8608 34.1152 46.762C34.1152 46.6198 35.1069 46.2966 35.635 46.2837C49.5445 46.2578 63.4412 46.2578 77.3508 46.2578C77.8016 46.2578 78.2652 46.2966 78.819 46.3224L78.8061 46.3483Z" fill="white"/>
<path d="M78.819 50.0708V53.4578C77.3895 53.2897 76.0629 53.251 74.7879 52.9536C68.9922 51.6092 63.1193 51.2084 57.1691 51.286C50.1757 51.3765 43.1822 51.3119 36.1759 51.3119C35.8668 51.3119 35.532 51.3765 35.2486 51.2989C34.8236 51.1697 34.0895 50.9628 34.0766 50.7431C34.0251 49.8381 34.8107 50.0967 35.313 50.0967C45.2944 50.0838 55.2758 50.0967 65.2572 50.0967C69.1725 50.0967 73.0749 50.0967 76.9902 50.0967C77.544 50.0967 78.0978 50.0967 78.8062 50.0967L78.819 50.0708Z" fill="white"/>
<path d="M78.8068 42.6246V45.6884C75.5097 45.753 72.2771 46.0116 69.1088 45.223C63.5707 43.8398 57.9682 43.3744 52.2756 43.4908C46.7247 43.5942 41.1608 43.5166 35.597 43.4908C35.069 43.4908 34.528 43.3227 34 43.2322C34.0644 42.8961 34.0773 42.8444 34.0902 42.7927C34.103 42.7539 34.1288 42.6893 34.1674 42.6763C34.2962 42.6117 34.4379 42.4953 34.5796 42.4953C48.9914 42.4824 63.4033 42.4824 77.8151 42.4824C78.1113 42.4824 78.4076 42.56 78.8068 42.6117V42.6246Z" fill="white"/>
<path d="M78.8322 53.9104V57C77.0678 56.6897 75.4192 56.3148 73.7578 56.1339C70.538 55.7848 67.3053 55.3194 64.0855 55.2807C54.7609 55.1643 45.4364 55.2419 36.1118 55.2419C35.6997 55.2419 35.2618 55.3194 34.8883 55.216C34.5663 55.1255 34.3087 54.8153 34.0254 54.5955C34.2959 54.3757 34.5534 54.1172 34.8625 53.9491C35.0171 53.8586 35.2618 53.9362 35.4679 53.9362C49.3259 53.9362 63.1839 53.9362 77.042 53.9233C77.5958 53.9233 78.1496 53.9233 78.8322 53.9233V53.9104Z" fill="white"/>
</g>
<defs>
<clipPath id="clip0_358_32">
<rect width="45" height="45" fill="white" transform="translate(34 12)"/>
</clipPath>
</defs>
</svg>
