<svg width="1948" height="1064" viewBox="0 0 1948 1064" fill="none" xmlns="http://www.w3.org/2000/svg">
<g filter="url(#filter0_n_334_119)">
<g filter="url(#filter1_n_334_119)">
<path d="M651.062 0.0644531C695.531 -0.0236599 732.803 -0.044079 739.423 0.145508C756.559 0.636628 765.239 10.157 782.399 29.1104C794.681 42.6751 802.996 52.4381 810.561 59.3096C816.161 64.3967 821.331 67.877 827.365 70.1152H1929C1939.49 70.1154 1948 78.6221 1948 89.1152V1044.12C1948 1054.61 1939.49 1063.12 1929 1063.12H19C8.5066 1063.12 2.11082e-05 1054.61 0 1044.12V70.1152H478.063C483.088 67.852 487.6 64.6102 492.433 60.1494C499.983 53.1807 508.281 43.2787 520.537 29.5225C537.661 10.3028 546.325 0.645606 563.431 0.147461C570.011 -0.0440025 606.926 -0.0230094 651.062 0.0654297V0.0644531Z" fill="url(#paint0_linear_334_119)"/>
</g>
<g filter="url(#filter2_i_334_119)">
<path d="M57.7324 744.249C116.258 744.148 213.375 743.942 223.347 744.133C236.846 744.392 243.672 749.386 257.417 759.556C277.011 774.053 285.345 780.431 300.113 782.508H877V1006.72C877 1015.94 869.528 1023.41 860.311 1023.41H60.6895C51.4724 1023.41 44 1015.94 44 1006.72V758.037C44 750.431 50.1267 744.262 57.7324 744.249Z" fill="#131313"/>
</g>
<g filter="url(#filter3_i_334_119)">
<path d="M64.9746 110.323C165.373 110.189 338.009 109.896 355.484 110.159C378.779 110.51 390.557 117.264 414.275 131.021C446.3 149.594 460.895 158.75 484.002 162.053H877V681.053C877 693.755 866.703 704.053 854 704.053H69C56.2975 704.053 46 693.755 46 681.053V129.324C46 118.84 54.4904 110.337 64.9746 110.323Z" fill="#131313"/>
</g>
<g filter="url(#filter4_i_334_119)">
<path d="M937.975 110.323C1038.37 110.189 1211.01 109.897 1228.48 110.16C1251.78 110.511 1263.56 117.264 1287.28 131.021C1319.3 149.595 1333.9 158.751 1357.01 162.054H1887C1899.7 162.054 1910 172.351 1910 185.054V1000.05C1910 1012.76 1899.7 1023.05 1887 1023.05H942C929.297 1023.05 919 1012.76 919 1000.05V129.324C919 118.84 927.49 110.337 937.975 110.323Z" fill="#131313"/>
</g>
</g>
<defs>
<filter id="filter0_n_334_119" x="0" y="0" width="1948" height="1063.12" filterUnits="userSpaceOnUse" color-interpolation-filters="sRGB">
<feFlood flood-opacity="0" result="BackgroundImageFix"/>
<feBlend mode="normal" in="SourceGraphic" in2="BackgroundImageFix" result="shape"/>
<feTurbulence type="fractalNoise" baseFrequency="3.3333332538604736 3.3333332538604736" stitchTiles="stitch" numOctaves="3" result="noise" seed="766" />
<feColorMatrix in="noise" type="luminanceToAlpha" result="alphaNoise" />
<feComponentTransfer in="alphaNoise" result="coloredNoise1">
<feFuncA type="discrete" tableValues="1 1 1 1 1 1 1 1 1 1 1 1 1 1 1 1 1 1 1 1 1 1 1 1 1 1 1 1 1 1 1 1 1 1 1 1 1 1 1 1 1 1 1 1 1 1 1 1 1 1 1 0 0 0 0 0 0 0 0 0 0 0 0 0 0 0 0 0 0 0 0 0 0 0 0 0 0 0 0 0 0 0 0 0 0 0 0 0 0 0 0 0 0 0 0 0 0 0 0 0 "/>
</feComponentTransfer>
<feComposite operator="in" in2="shape" in="coloredNoise1" result="noise1Clipped" />
<feFlood flood-color="rgba(0, 0, 0, 0.15)" result="color1Flood" />
<feComposite operator="in" in2="noise1Clipped" in="color1Flood" result="color1" />
<feMerge result="effect1_noise_334_119">
<feMergeNode in="shape" />
<feMergeNode in="color1" />
</feMerge>
</filter>
<filter id="filter1_n_334_119" x="0" y="0" width="1948" height="1063.12" filterUnits="userSpaceOnUse" color-interpolation-filters="sRGB">
<feFlood flood-opacity="0" result="BackgroundImageFix"/>
<feBlend mode="normal" in="SourceGraphic" in2="BackgroundImageFix" result="shape"/>
<feTurbulence type="fractalNoise" baseFrequency="25 25" stitchTiles="stitch" numOctaves="3" result="noise" seed="8647" />
<feColorMatrix in="noise" type="luminanceToAlpha" result="alphaNoise" />
<feComponentTransfer in="alphaNoise" result="coloredNoise1">
<feFuncA type="discrete" tableValues="1 1 1 1 1 1 1 1 1 1 1 1 1 1 1 1 1 1 1 1 1 1 1 1 1 1 1 1 1 1 1 1 1 1 1 1 1 1 1 1 1 1 1 1 1 1 1 1 1 1 1 0 0 0 0 0 0 0 0 0 0 0 0 0 0 0 0 0 0 0 0 0 0 0 0 0 0 0 0 0 0 0 0 0 0 0 0 0 0 0 0 0 0 0 0 0 0 0 0 0 "/>
</feComponentTransfer>
<feComposite operator="in" in2="shape" in="coloredNoise1" result="noise1Clipped" />
<feFlood flood-color="rgba(0, 0, 0, 0.2)" result="color1Flood" />
<feComposite operator="in" in2="noise1Clipped" in="color1Flood" result="color1" />
<feMerge result="effect1_noise_334_119">
<feMergeNode in="shape" />
<feMergeNode in="color1" />
</feMerge>
</filter>
<filter id="filter2_i_334_119" x="44" y="744.055" width="833" height="282.259" filterUnits="userSpaceOnUse" color-interpolation-filters="sRGB">
<feFlood flood-opacity="0" result="BackgroundImageFix"/>
<feBlend mode="normal" in="SourceGraphic" in2="BackgroundImageFix" result="shape"/>
<feColorMatrix in="SourceAlpha" type="matrix" values="0 0 0 0 0 0 0 0 0 0 0 0 0 0 0 0 0 0 127 0" result="hardAlpha"/>
<feOffset dy="2.90244"/>
<feGaussianBlur stdDeviation="1.45122"/>
<feComposite in2="hardAlpha" operator="arithmetic" k2="-1" k3="1"/>
<feColorMatrix type="matrix" values="0 0 0 0 0 0 0 0 0 0 0 0 0 0 0 0 0 0 0.25 0"/>
<feBlend mode="normal" in2="shape" result="effect1_innerShadow_334_119"/>
</filter>
<filter id="filter3_i_334_119" x="46" y="110.054" width="831" height="597.999" filterUnits="userSpaceOnUse" color-interpolation-filters="sRGB">
<feFlood flood-opacity="0" result="BackgroundImageFix"/>
<feBlend mode="normal" in="SourceGraphic" in2="BackgroundImageFix" result="shape"/>
<feColorMatrix in="SourceAlpha" type="matrix" values="0 0 0 0 0 0 0 0 0 0 0 0 0 0 0 0 0 0 127 0" result="hardAlpha"/>
<feOffset dy="4"/>
<feGaussianBlur stdDeviation="2"/>
<feComposite in2="hardAlpha" operator="arithmetic" k2="-1" k3="1"/>
<feColorMatrix type="matrix" values="0 0 0 0 0 0 0 0 0 0 0 0 0 0 0 0 0 0 0.25 0"/>
<feBlend mode="normal" in2="shape" result="effect1_innerShadow_334_119"/>
</filter>
<filter id="filter4_i_334_119" x="919" y="110.054" width="991" height="917" filterUnits="userSpaceOnUse" color-interpolation-filters="sRGB">
<feFlood flood-opacity="0" result="BackgroundImageFix"/>
<feBlend mode="normal" in="SourceGraphic" in2="BackgroundImageFix" result="shape"/>
<feColorMatrix in="SourceAlpha" type="matrix" values="0 0 0 0 0 0 0 0 0 0 0 0 0 0 0 0 0 0 127 0" result="hardAlpha"/>
<feOffset dy="4"/>
<feGaussianBlur stdDeviation="2"/>
<feComposite in2="hardAlpha" operator="arithmetic" k2="-1" k3="1"/>
<feColorMatrix type="matrix" values="0 0 0 0 0 0 0 0 0 0 0 0 0 0 0 0 0 0 0.25 0"/>
<feBlend mode="normal" in2="shape" result="effect1_innerShadow_334_119"/>
</filter>
<linearGradient id="paint0_linear_334_119" x1="0" y1="531.557" x2="1948" y2="531.557" gradientUnits="userSpaceOnUse">
<stop stop-color="#96393A"/>
<stop offset="0.490385" stop-color="#973B67"/>
<stop offset="1" stop-color="#A54D4F"/>
</linearGradient>
</defs>
</svg>
